<svg xmlns="http://www.w3.org/2000/svg"  viewBox="0 0 48 48" width="480px" height="480px"><path d="M 13 4 C 10.250484 4 8 6.2504839 8 9 L 8 40 C 8 42.749516 10.250484 45 13 45 L 35 45 C 37.749516 45 40 42.749516 40 40 L 40 20 A 1.0001 1.0001 0 1 0 38 20 L 38 40 C 38 41.668484 36.668484 43 35 43 L 13 43 C 11.331516 43 10 41.668484 10 40 L 10 9 C 10 7.3315161 11.331516 6 13 6 L 23 6 L 24 6 C 25.105 6 26 6.895 26 8 L 26 10 L 26 13 C 26 15.206 27.794 17 30 17 L 38.6875 16.998047 A 1.0003211 1.0003211 0 0 0 38.728516 16.998047 A 1.0003211 1.0003211 0 0 0 39.03125 16.951172 A 1.0003211 1.0003211 0 0 0 39.296875 16.822266 A 1.0003211 1.0003211 0 0 0 39.300781 16.820312 C 39.302286 16.819264 39.303189 16.817463 39.304688 16.816406 A 1.0003211 1.0003211 0 0 0 39.517578 16.615234 A 1.0003211 1.0003211 0 0 0 39.519531 16.613281 C 39.519877 16.612836 39.519186 16.611774 39.519531 16.611328 A 1.0003211 1.0003211 0 0 0 39.667969 16.347656 A 1.0003211 1.0003211 0 0 0 39.667969 16.345703 C 39.668194 16.345088 39.667745 16.344365 39.667969 16.34375 A 1.0003211 1.0003211 0 0 0 39.695312 15.746094 A 1.0003211 1.0003211 0 0 0 39.640625 15.583984 C 39.625439 15.550625 39.602061 15.521222 39.585938 15.488281 C 39.58025 15.478661 39.576335 15.468429 39.570312 15.458984 C 39.379739 15.077804 39.135101 14.72179 38.826172 14.414062 L 29.585938 5.171875 C 28.951373 4.536182 28.120646 4.1563595 27.238281 4.0488281 C 27.159749 4.0289901 27.084667 4 27 4 L 26.757812 4 L 23 4 L 13 4 z"/></svg>